<svg width="21" height="21" viewBox="0 0 21 21" fill="none" xmlns="http://www.w3.org/2000/svg">
<path d="M18.375 7C18.375 7.8925 17.3372 8.68 15.75 9.15425C14.7578 9.45175 13.5511 9.625 12.25 9.625C10.9489 9.625 9.74225 9.45087 8.75 9.15425C7.16363 8.68 6.125 7.8925 6.125 7C6.125 5.55013 8.86725 4.375 12.25 4.375C15.6327 4.375 18.375 5.55013 18.375 7Z" fill="white"/>
<path d="M18.375 7C18.375 5.55013 15.6327 4.375 12.25 4.375C8.86725 4.375 6.125 5.55013 6.125 7M18.375 7V10.5C18.375 11.3925 17.3373 12.18 15.75 12.6542C14.7578 12.9517 13.5511 13.125 12.25 13.125C10.9489 13.125 9.74225 12.9509 8.75 12.6542C7.16363 12.18 6.125 11.3925 6.125 10.5V7M18.375 7C18.375 7.8925 17.3373 8.68 15.75 9.15425C14.7578 9.45175 13.5511 9.625 12.25 9.625C10.9489 9.625 9.74225 9.45087 8.75 9.15425C7.16363 8.68 6.125 7.8925 6.125 7" stroke="white" stroke-width="2" stroke-linecap="round" stroke-linejoin="round"/>
<path d="M2.625 10.5V14C2.625 14.8925 3.66363 15.68 5.25 16.1542C6.24225 16.4517 7.44888 16.625 8.75 16.625C10.0511 16.625 11.2578 16.4509 12.25 16.1542C13.8364 15.68 14.875 14.8925 14.875 14V13.125M2.625 10.5C2.625 9.45262 4.05562 8.54874 6.125 8.12787M2.625 10.5C2.625 11.3925 3.66363 12.18 5.25 12.6542C6.24225 12.9517 7.44888 13.125 8.75 13.125C9.35812 13.125 9.94525 13.0874 10.5 13.0165" stroke="white" stroke-width="2" stroke-linecap="round" stroke-linejoin="round"/>
</svg>
