<svg width="16" height="18" viewBox="0 0 16 18" fill="none" xmlns="http://www.w3.org/2000/svg">
<path d="M2.20113 11.802C0.937961 12.2201 0 13.3515 0 14.6821V14.6821C0 16.2384 1.26164 17.5 2.81795 17.5H13C14.6569 17.5 16 16.1569 16 14.5V12.4652C16 10.6468 14.2793 9.3138 12.6019 10.016C12.0723 10.2377 11.5498 10.4782 11.0334 10.7376C9.69392 11.4104 8 10.499 8 9V9C6.14459 10.1649 4.22694 11.1314 2.20113 11.802ZM16 3.31795C16 1.76164 14.7384 0.5 13.1821 0.5H3C1.34315 0.5 0 1.84315 0 3.5V5.65154C0 7.41078 1.66588 8.70522 3.29205 8.03402C3.84221 7.80694 4.38412 7.55824 4.91589 7.28693C6.24761 6.60749 8 7.50498 8 9V9C9.77429 7.74321 11.736 6.81825 13.7927 6.17606C15.0628 5.77948 16 4.64852 16 3.31795V3.31795Z" fill="#C2B1FF"/>
</svg>
