<svg width="21" height="21" viewBox="0 0 21 21" fill="none" xmlns="http://www.w3.org/2000/svg">
<path d="M6.5625 8.414V9.31875L9.31875 7.35L6.5625 5.57812V6.38313C5.45157 6.48329 4.42211 7.00818 3.68856 7.84847C2.955 8.68877 2.57391 9.77967 2.62466 10.8939C2.67542 12.0082 3.1541 13.06 3.961 13.8301C4.76791 14.6002 5.84082 15.0294 6.95625 15.0281C7.94763 15.0281 9.31875 14.679 10.1063 13.8469C11.0906 12.7102 12.264 9.84813 12.264 9.84813L8.74913 12.1275C8.39141 12.5302 7.90194 12.7924 7.36847 12.8669C6.83501 12.9415 6.29243 12.8236 5.838 12.5344C5.46037 12.2938 5.16251 11.9468 4.98207 11.537C4.80163 11.1273 4.74671 10.6732 4.82425 10.2322C4.90178 9.79128 5.1083 9.38319 5.41769 9.05956C5.72708 8.73593 6.12547 8.51128 6.5625 8.414Z" fill="white"/>
<path d="M14.4375 12.586V11.6812L11.6813 13.65L14.4375 15.4219V14.6169C15.5484 14.5167 16.5779 13.9918 17.3114 13.1515C18.045 12.3112 18.4261 11.2203 18.3753 10.106C18.3246 8.99176 17.8459 7.94002 17.039 7.16989C16.2321 6.39976 15.1592 5.97062 14.0437 5.97187C13.0515 5.97187 11.6812 6.32099 10.8937 7.15312C9.90937 8.28974 8.736 11.1519 8.736 11.1519L12.25 8.87249C12.4869 8.60523 12.7838 8.3978 13.1162 8.26716C13.4486 8.13652 13.8072 8.08636 14.1627 8.12079C14.5182 8.15522 14.8606 8.27325 15.1617 8.46525C15.4629 8.65725 15.7144 8.91777 15.8957 9.22553C16.0769 9.5333 16.1828 9.87957 16.2047 10.2361C16.2266 10.5926 16.1638 10.9492 16.0215 11.2768C15.8792 11.6044 15.6615 11.8937 15.386 12.1211C15.1106 12.3485 14.7853 12.5075 14.4366 12.5851" fill="white"/>
</svg>
