<svg width="100%" height="100%" viewBox="0 0 28 29" fill="none" xmlns="http://www.w3.org/2000/svg">
<path d="M14 28.5C21.732 28.5 28 22.232 28 14.5C28 6.76801 21.732 0.5 14 0.5C6.26801 0.5 0 6.76801 0 14.5C0 22.232 6.26801 28.5 14 28.5Z" fill="#F4B731"/>
<path fill-rule="evenodd" clip-rule="evenodd" d="M8.03732 8H13.8996C17.4652 8 20.1682 9.8515 21.1738 12.5448H23V14.1731H21.5586C21.5866 14.4304 21.6006 14.6923 21.6006 14.9589V14.9991C21.6006 15.299 21.5827 15.5935 21.5469 15.8829H23V17.5104H21.1389C20.1073 20.1669 17.4258 22 13.9005 22H8.03732V17.5104H6V15.8829H8.03732V14.1731H6V12.5456H8.03732V8ZM9.67558 17.5104V20.5396H13.8987C16.506 20.5396 18.4422 19.326 19.3432 17.5104H9.67558ZM19.8452 15.8829H9.67558V14.1731H19.8487C19.8857 14.4415 19.9045 14.7168 19.9051 14.9991V15.0385C19.9051 15.3261 19.8851 15.6072 19.8452 15.882V15.8829ZM13.9005 9.45687C16.5185 9.45687 18.461 10.7029 19.3566 12.5439H9.67558V9.45775H13.8987L13.9005 9.45687Z" fill="white"/>
</svg>
