<svg width="16" height="17" viewBox="0 0 16 17" fill="none" xmlns="http://www.w3.org/2000/svg">
<path d="M10.568 0.499985H5.4C3.96848 0.502101 2.5962 1.07171 1.58396 2.08395C0.571722 3.09618 0.00211607 4.46847 0 5.89998V11.1C0.00211607 12.5315 0.571722 13.9038 1.58396 14.916C2.5962 15.9283 3.96848 16.4979 5.4 16.5H10.6C12.0315 16.4979 13.4038 15.9283 14.416 14.916C15.4283 13.9038 15.9979 12.5315 16 11.1V5.89998C15.999 5.18845 15.8575 4.48411 15.5838 3.82733C15.31 3.17056 14.9093 2.57426 14.4047 2.07262C13.9001 1.57097 13.3015 1.17384 12.6431 0.903975C11.9847 0.634112 11.2795 0.496826 10.568 0.499985ZM12.464 6.43599L10.504 9.40399C10.2987 9.7069 9.98411 9.91858 9.62617 9.99465C9.26823 10.0707 8.89474 10.0052 8.584 9.81199L6.672 8.60398C6.65072 8.594 6.62751 8.58882 6.604 8.58882C6.58049 8.58882 6.55728 8.594 6.536 8.60398C6.48548 8.61007 6.43944 8.63597 6.408 8.67599L4.448 11.268C4.35364 11.3842 4.21927 11.4609 4.07126 11.4831C3.92325 11.5053 3.77229 11.4714 3.648 11.388C3.53182 11.2936 3.45511 11.1593 3.43291 11.0112C3.4107 10.8632 3.44462 10.7123 3.528 10.588L5.488 7.97999C5.69898 7.69937 6.00768 7.50827 6.35293 7.44455C6.69817 7.38084 7.05476 7.44916 7.352 7.63598L9.264 8.84399C9.28755 8.85593 9.31359 8.86216 9.34 8.86216C9.36641 8.86216 9.39245 8.85593 9.416 8.84399C9.44036 8.83942 9.46354 8.82998 9.48416 8.81623C9.50479 8.80248 9.52242 8.78471 9.536 8.76398L11.504 5.79598C11.5921 5.66338 11.7292 5.57118 11.8852 5.53967C12.0412 5.50817 12.2034 5.53993 12.336 5.62798C12.4686 5.71604 12.5608 5.85316 12.5923 6.00919C12.6238 6.16522 12.5921 6.32738 12.504 6.45998L12.464 6.43599Z" fill="white"/>
</svg>
