<svg width="100%" height="100%" viewBox="0 0 29 29" fill="none" xmlns="http://www.w3.org/2000/svg">
<path d="M14.5 28.5C22.232 28.5 28.5 22.232 28.5 14.5C28.5 6.76801 22.232 0.5 14.5 0.5C6.76801 0.5 0.5 6.76801 0.5 14.5C0.5 22.232 6.76801 28.5 14.5 28.5Z" fill="#627EEA"/>
<path d="M14.637 4.44275V12.0647L21.0791 14.9434L14.637 4.44275Z" fill="white" fill-opacity="0.602"/>
<path d="M14.6369 4.44275L8.19385 14.9434L14.6369 12.0647V4.44275Z" fill="white"/>
<path d="M14.637 19.8826V25.0616L21.0834 16.1429L14.637 19.8826Z" fill="white" fill-opacity="0.602"/>
<path d="M14.6369 25.0616V19.8818L8.19385 16.1429L14.6369 25.0616Z" fill="white"/>
<path d="M14.637 18.6839L21.0791 14.9434L14.637 12.0665V18.6839Z" fill="white" fill-opacity="0.2"/>
<path d="M8.19385 14.9434L14.6369 18.6839V12.0665L8.19385 14.9434Z" fill="white" fill-opacity="0.602"/>
</svg>
