<svg width="21" height="21" viewBox="0 0 21 21" fill="none" xmlns="http://www.w3.org/2000/svg">
<path d="M11.3487 2.22251C10.8237 1.92501 10.1762 1.92501 9.65125 2.22251L3.52625 5.62626L7.9625 8.08501C8.60125 7.42001 9.5025 7.00001 10.5 7.00001C11.4975 7.00001 12.3987 7.42001 13.0375 8.08501L17.4737 5.61751L11.3487 2.22251ZM8.75 10.5C8.75 9.53751 9.5375 8.75001 10.5 8.75001C11.4625 8.75001 12.25 9.53751 12.25 10.5C12.25 11.4625 11.4625 12.25 10.5 12.25C9.5375 12.25 8.75 11.4625 8.75 10.5ZM2.625 7.12252L7.11375 9.61626C7.035 9.89626 7 10.1938 7 10.5C7 12.1275 8.11125 13.5013 9.625 13.8863V18.76L3.52625 15.3738C3.25239 15.2229 3.0242 15.0012 2.86562 14.7317C2.70704 14.4623 2.62392 14.1552 2.625 13.8425V7.12252ZM11.375 18.76V13.8863C12.8887 13.5013 14 12.1275 14 10.5C14 10.1938 13.965 9.89626 13.8862 9.61626L18.375 7.12252V13.8425C18.375 14.4813 18.0337 15.0675 17.4737 15.3738L11.375 18.76Z" fill="white"/>
</svg>
