<svg width="21" height="21" viewBox="0 0 21 21" fill="none" xmlns="http://www.w3.org/2000/svg">
<path fill-rule="evenodd" clip-rule="evenodd" d="M10.5 1.75C5.66738 1.75 1.75 5.66738 1.75 10.5C1.75 15.3326 5.66738 19.25 10.5 19.25C15.3326 19.25 19.25 15.3326 19.25 10.5C19.25 5.66738 15.3326 1.75 10.5 1.75ZM10.5 2.625C10.5 4.71358 9.67031 6.71662 8.19347 8.19347C6.71662 9.67031 4.71358 10.5 2.625 10.5C4.71358 10.5 6.71662 11.3297 8.19347 12.8065C9.67031 14.2834 10.5 16.2864 10.5 18.375C10.5 16.2864 11.3297 14.2834 12.8065 12.8065C14.2834 11.3297 16.2864 10.5 18.375 10.5C16.2864 10.5 14.2834 9.67031 12.8065 8.19347C11.3297 6.71662 10.5 4.71358 10.5 2.625Z" fill="white"/>
</svg>
