<svg width="100%" height="100%" viewBox="0 0 28 29" fill="none" xmlns="http://www.w3.org/2000/svg">
<path d="M14 28.5C21.732 28.5 28 22.232 28 14.5C28 6.76801 21.732 0.5 14 0.5C6.26801 0.5 0 6.76801 0 14.5C0 22.232 6.26801 28.5 14 28.5Z" fill="#3E73C4"/>
<path d="M16.9252 16.1817C16.9252 14.6369 15.9942 14.1074 14.1323 13.8863C12.8028 13.7096 12.5373 13.3568 12.5373 12.7386C12.5373 12.1204 12.981 11.7233 13.8668 11.7233C14.6647 11.7233 15.1084 11.988 15.3295 12.6506C15.3527 12.7146 15.3949 12.7699 15.4503 12.8093C15.5058 12.8487 15.572 12.8702 15.64 12.871H16.3492C16.3901 12.8721 16.4309 12.8648 16.469 12.8497C16.507 12.8346 16.5416 12.8119 16.5707 12.783C16.5997 12.7541 16.6226 12.7196 16.6379 12.6816C16.6532 12.6435 16.6606 12.6028 16.6597 12.5619V12.5182C16.5731 12.0389 16.3305 11.6015 15.9698 11.2742C15.609 10.9468 15.1502 10.7477 14.6647 10.7079V9.64895C14.6647 9.47221 14.5316 9.33984 14.3105 9.29547H13.645C13.4683 9.29547 13.3352 9.42784 13.2908 9.64895V10.6643C11.9605 10.8403 11.119 11.7233 11.119 12.8273C11.119 14.2834 12.0049 14.8573 13.8668 15.0784C15.1084 15.2988 15.5069 15.5642 15.5069 16.2705C15.5069 16.976 14.8865 17.4618 14.0443 17.4618C12.8915 17.4618 12.4929 16.9767 12.3598 16.3141C12.3162 16.1381 12.1824 16.0494 12.0493 16.0494H11.2958C11.2549 16.0484 11.2142 16.0557 11.1762 16.0709C11.1382 16.086 11.1037 16.1088 11.0747 16.1376C11.0457 16.1665 11.0229 16.201 11.0077 16.239C10.9924 16.2769 10.985 16.3176 10.9859 16.3585V16.4021C11.1627 17.5062 11.8725 18.3004 13.3352 18.5215V19.5812C13.3352 19.7572 13.4683 19.8903 13.6894 19.934H14.3549C14.5316 19.934 14.6647 19.8016 14.7091 19.5812V18.5208C16.0393 18.3004 16.9252 17.3731 16.9252 16.181V16.1817Z" fill="white"/>
<path d="M11.7395 20.8169C8.28183 19.5805 6.50862 15.7402 7.79452 12.3414C8.4593 10.4868 9.92194 9.07504 11.7395 8.41246C11.917 8.32445 12.005 8.19208 12.005 7.97097V7.35275C12.005 7.17674 11.917 7.04437 11.7395 7C11.6951 7 11.6064 7 11.562 7.04364C10.5645 7.35517 9.63838 7.86095 8.83708 8.53186C8.03579 9.20278 7.37512 10.0256 6.89312 10.9529C6.41112 11.8802 6.1173 12.8936 6.0286 13.9349C5.93989 14.9763 6.05804 16.0248 6.37625 17.0203C7.17339 19.4932 9.0797 21.3915 11.562 22.1857C11.7395 22.2737 11.917 22.1857 11.9606 22.009C12.005 21.9653 12.005 21.9202 12.005 21.8322V21.214C12.005 21.0816 11.8726 20.9056 11.7395 20.8169ZM16.438 7.04437C16.2605 6.95563 16.0831 7.04437 16.0394 7.22038C15.9951 7.26474 15.9951 7.30911 15.9951 7.39712V8.01534C15.9951 8.19208 16.1274 8.36809 16.2605 8.45682C19.7182 9.69327 21.4914 13.5335 20.2055 16.9323C19.5407 18.787 18.0781 20.1987 16.2605 20.8613C16.0831 20.9493 15.9951 21.0816 15.9951 21.3028V21.921C15.9951 22.097 16.0831 22.2294 16.2605 22.2737C16.3049 22.2737 16.3936 22.2737 16.438 22.2301C17.4356 21.9186 18.3617 21.4128 19.163 20.7419C19.9643 20.071 20.6249 19.2482 21.1069 18.3209C21.5889 17.3936 21.8827 16.3801 21.9714 15.3388C22.0602 14.2975 21.942 13.2489 21.6238 12.2534C20.8267 9.73691 18.876 7.8386 16.438 7.04437Z" fill="white"/>
</svg>
