<svg width="100%" height="100%" viewBox="0 0 28 29" fill="none" xmlns="http://www.w3.org/2000/svg">
<path d="M14 28.5C21.732 28.5 28 22.232 28 14.5C28 6.76801 21.732 0.5 14 0.5C6.26801 0.5 0 6.76801 0 14.5C0 22.232 6.26801 28.5 14 28.5Z" fill="#26A17B"/>
<path fill-rule="evenodd" clip-rule="evenodd" d="M15.6522 14.943V14.9414C15.5609 14.948 15.09 14.9763 14.0394 14.9763C13.2006 14.9763 12.6101 14.9513 12.4024 14.9414V14.9439C9.17339 14.8018 6.76324 14.2396 6.76324 13.5669C6.76324 12.8942 9.17339 12.3327 12.4024 12.1882V14.3841C12.6134 14.399 13.218 14.4348 14.0535 14.4348C15.0559 14.4348 15.5584 14.3932 15.6522 14.3849V12.1899C18.8746 12.3336 21.279 12.8958 21.279 13.5669C21.279 14.2396 18.8746 14.8002 15.6522 14.943ZM15.6522 11.9615V9.99649H20.1486V7H7.90603V9.99649H12.4024V11.9607C8.74817 12.1284 6 12.8526 6 13.7197C6 14.5867 8.74817 15.3101 12.4024 15.4787V21.7757H15.6522V15.4771C19.3007 15.3093 22.0422 14.5859 22.0422 13.7197C22.0422 12.8535 19.3007 12.1301 15.6522 11.9615Z" fill="white"/>
</svg>
