<svg width="27" height="27" viewBox="0 0 27 27" fill="none" xmlns="http://www.w3.org/2000/svg">
<path d="M23.1426 0H3.85678C1.72666 0 0 1.72725 0 3.85732V23.1427C0 25.2727 1.72666 26.9994 3.85678 27H23.1426C25.2727 27 27 25.2727 27 23.1427V3.85732C27 1.72725 25.2727 0 23.1426 0ZM15.2897 5.50893C15.3092 5.00588 15.876 4.83883 16.241 5.16789L21.8459 10.1347C22.3584 10.5974 22.1743 11.0872 21.8679 11.3765C20.1747 12.9777 17.9172 14.7649 16.2013 16.356C15.8974 16.6062 15.4725 16.5186 15.3212 16.2381C15.2784 16.1586 15.2802 16.0155 15.2802 15.9891V13.3106C13.4609 13.2872 11.6876 14.132 10.4829 15.4715C10.1311 15.8617 9.47427 16.8893 9.11242 17.1301C8.73103 17.3847 8.23995 17.1357 8.19267 16.6894C8.11639 15.9771 8.21599 14.9445 8.36477 14.2404C9.05884 10.9674 11.9259 8.42005 15.2802 8.21517L15.2897 5.50893ZM22.1453 19.2091C22.0816 20.8708 21.3207 22.0326 19.4982 22.1259C15.6452 22.2356 11.774 22.1397 7.9134 22.1738C6.27121 22.204 4.92342 21.1582 4.87866 19.5217C4.79734 15.522 4.80932 11.4995 4.87425 7.49905C4.94863 5.89094 6.19872 4.82181 7.81569 4.82811L12.7473 4.82181C13.7276 4.92772 13.7711 6.22883 12.8217 6.40092L7.9134 6.40345C6.98671 6.38138 6.39099 7.05842 6.41746 7.89872V19.0906C6.39918 19.9548 7.04471 20.5858 7.9134 20.5858H19.0664C19.9547 20.5858 20.5914 20.0298 20.5914 19.1586L20.5945 14.2505C20.6815 13.2494 22.0696 13.2374 22.1793 14.2561L22.1434 19.2091H22.1453Z" fill="#D9D9D9" fill-opacity="0.4"/>
</svg>
