<svg width="100%" height="100%" viewBox="0 0 28 29" fill="none" xmlns="http://www.w3.org/2000/svg">
<path d="M14 28.5C21.732 28.5 28 22.232 28 14.5C28 6.76801 21.732 0.5 14 0.5C6.26801 0.5 0 6.76801 0 14.5C0 22.232 6.26801 28.5 14 28.5Z" fill="#312E39"/>
<path d="M20.4788 8.92904L19.955 9.45277C21.2047 10.8194 21.8977 12.6042 21.8977 14.4561C21.8977 16.3079 21.2047 18.0927 19.955 19.4594L20.4788 19.9831C21.8689 18.4758 22.6408 16.5004 22.6408 14.45C22.6408 12.3995 21.8689 10.4241 20.4788 8.91682V8.92904ZM9.46486 8.97443C10.8315 7.72474 12.6163 7.03172 14.4682 7.03172C16.32 7.03172 18.1048 7.72474 19.4715 8.97443L19.9952 8.45071C18.4879 7.06054 16.5125 6.2887 14.4621 6.2887C12.4116 6.2887 10.4362 7.06054 8.92892 8.45071L9.46486 8.97443ZM8.97431 19.4646C7.7261 18.0983 7.034 16.3146 7.034 14.4639C7.034 12.6133 7.7261 10.8296 8.97431 9.46324L8.45059 8.93952C7.06042 10.4468 6.28857 12.4222 6.28857 14.4727C6.28857 16.5231 7.06042 18.4985 8.45059 20.0058L8.97431 19.4646ZM19.4645 19.9482C18.0979 21.1979 16.313 21.8909 14.4612 21.8909C12.6093 21.8909 10.8245 21.1979 9.45788 19.9482L8.93416 20.4719C10.4415 21.8621 12.4168 22.6339 14.4673 22.6339C16.5178 22.6339 18.4931 21.8621 20.0004 20.4719L19.4645 19.9482ZM17.7694 12.7156C17.6646 11.6227 16.7219 11.2561 15.5296 11.1444V9.63956H14.6078V11.1165H13.8711V9.63956H12.9564V11.1549H11.0867V12.1412C11.0867 12.1412 11.7675 12.129 11.757 12.1412C11.8798 12.1277 12.003 12.1624 12.1007 12.2379C12.1984 12.3135 12.2629 12.424 12.2807 12.5462V16.6941C12.2781 16.7372 12.2669 16.7793 12.2477 16.818C12.2285 16.8567 12.2018 16.8912 12.169 16.9193C12.1368 16.9478 12.0992 16.9696 12.0584 16.9834C12.0176 16.9972 11.9745 17.0027 11.9316 16.9996C11.9438 17.0101 11.2612 16.9996 11.2612 16.9996L11.0867 18.1012H12.9389V19.6409H13.8606V18.1239H14.5974V19.6339H15.5209V18.1117C17.0781 18.0174 18.1639 17.6333 18.3001 16.1756C18.4101 15.0025 17.8584 14.4788 16.9768 14.2675C17.5127 14.0039 17.8444 13.5151 17.7694 12.7156ZM16.4775 15.9941C16.4775 17.1393 14.5153 17.0083 13.8903 17.0083V14.9763C14.5153 14.978 16.4775 14.7982 16.4775 15.9941ZM16.0498 13.131C16.0498 14.1785 14.4123 14.0511 13.8921 14.0511V12.2041C14.4123 12.2041 16.0498 12.04 16.0498 13.131Z" fill="white"/>
<path d="M14.4613 24C9.19437 23.9992 4.92603 19.7291 4.92603 14.4622C4.92603 9.19524 9.19612 4.92603 14.4622 4.92603C19.7282 4.92603 23.9992 9.19437 24 14.4613C24.0003 15.714 23.7537 16.9545 23.2744 18.1119C22.7951 19.2693 22.0925 20.3209 21.2067 21.2067C20.3209 22.0925 19.2693 22.7951 18.1119 23.2744C16.9545 23.7537 15.714 24.0003 14.4613 24ZM14.4613 5.66971C9.60898 5.6732 5.67844 9.60898 5.68019 14.4613C5.68193 19.3136 9.61684 23.2459 14.4683 23.2459C19.3206 23.2459 23.2546 19.3136 23.2563 14.4613C23.2566 13.3064 23.0292 12.1628 22.5873 11.0958C22.1453 10.0288 21.4974 9.05942 20.6806 8.24296C19.8638 7.42649 18.8942 6.77899 17.827 6.33746C16.7599 5.89593 15.6162 5.66902 14.4613 5.66971Z" fill="white"/>
</svg>
